<svg width="233" height="240" viewBox="0 0 233 240" fill="none" xmlns="http://www.w3.org/2000/svg">
<g style="mix-blend-mode:soft-light" opacity="0.5">
<path d="M0 94.125H69.1648C69.1648 94.125 64.2198 78.7961 55.8914 81.0329C47.563 83.2039 47.8883 85.1118 47.8883 85.1118C47.8883 85.1118 45.4158 72.0197 34.2896 73.8618C23.1634 75.7039 20.6909 84.7829 20.6909 84.7829C20.6909 84.7829 13.5987 81.9539 10.4756 84.7829C7.41748 87.6118 8.00308 89.125 8.00308 89.125C8.00308 89.125 1.23625 86.0329 0 94.125Z" fill="white"/>
</g>
<g style="mix-blend-mode:soft-light" opacity="0.8">
<path d="M182.834 65.9316C182.054 63.6948 180.297 59.8132 177.564 58.8921C173.66 57.5764 167.869 61.9185 167.869 61.9185C167.869 61.9185 165.071 51.7211 155.702 51.3264C146.333 50.9316 148.024 61.7211 148.024 61.7211C148.024 61.7211 145.617 60.9974 140.737 59.4842C135.857 57.9711 134.165 62.5106 134.165 62.5106C131.107 61.3921 129.871 64.3527 129.481 65.9316H182.834Z" fill="white"/>
</g>
<path d="M37.5429 0C37.5429 0 37.4127 1.71052 35.7861 1.90789C37.4127 2.10526 37.5429 3.81579 37.5429 3.81579C37.5429 3.81579 37.673 2.10526 39.2996 1.90789C37.673 1.77631 37.5429 0 37.5429 0Z" fill="#FFD08A"/>
<path d="M124.731 26.9737C124.731 26.9737 124.601 28.6842 122.974 28.8816C124.601 29.079 124.731 30.7895 124.731 30.7895C124.731 30.7895 124.861 29.079 126.488 28.8816C124.861 28.75 124.731 26.9737 124.731 26.9737Z" fill="#FFD08A"/>
<path d="M60.9665 20.3947C60.9665 20.3947 60.8364 22.1053 59.2097 22.3026C60.8364 22.5 60.9665 24.2105 60.9665 24.2105C60.9665 24.2105 61.0966 22.5 62.7233 22.3026C61.0966 22.1711 60.9665 20.3947 60.9665 20.3947Z" fill="#FFD08A"/>
<path d="M204.111 65.7895C204.111 65.7895 203.981 67.5 202.354 67.6974C203.981 67.8947 204.111 69.6053 204.111 69.6053C204.111 69.6053 204.241 67.8947 205.868 67.6974C204.176 67.5658 204.111 65.7895 204.111 65.7895Z" fill="#FFD08A"/>
<path d="M128.374 105C128.374 105 128.244 106.711 126.618 106.908C128.244 107.105 128.374 108.816 128.374 108.816C128.374 108.816 128.505 107.105 130.131 106.908C128.44 106.776 128.374 105 128.374 105Z" fill="#FFD08A"/>
<path d="M99.6155 46.0526C99.6155 46.0526 99.2901 50.6579 94.9958 51.0526C99.2901 51.5132 99.6155 56.0526 99.6155 56.0526C99.6155 56.0526 99.9408 51.4474 104.235 51.0526C99.9408 50.6579 99.6155 46.0526 99.6155 46.0526Z" fill="#FFD08A"/>
<path d="M18.9341 38.6184C18.9341 38.6184 18.6088 43.2237 14.3144 43.6184C18.6088 44.079 18.9341 48.6184 18.9341 48.6184C18.9341 48.6184 19.2594 44.0132 23.5537 43.6184C19.2594 43.2237 18.9341 38.6184 18.9341 38.6184Z" fill="#FFD08A"/>
<path d="M95.1259 0C95.1259 0 94.8657 3.35526 91.7425 3.68421C94.8657 4.01316 95.1259 7.36842 95.1259 7.36842C95.1259 7.36842 95.3862 4.01316 98.5093 3.68421C95.3862 3.28947 95.1259 0 95.1259 0Z" fill="#FFD08A"/>
<path d="M47.2376 62.5C47.2376 62.5 47.0424 65.4605 44.2446 65.7895C47.0424 66.0526 47.2376 69.079 47.2376 69.079C47.2376 69.079 47.4328 66.1184 50.2307 65.7895C47.4979 65.4605 47.2376 62.5 47.2376 62.5Z" fill="#FFD08A"/>
<path d="M73.8495 128.224C73.8495 128.224 73.6543 131.184 70.8565 131.513C73.6543 131.776 73.8495 134.803 73.8495 134.803C73.8495 134.803 74.0447 131.842 76.8425 131.513C74.0447 131.184 73.8495 128.224 73.8495 128.224Z" fill="#FFD08A"/>
<g style="mix-blend-mode:soft-light" opacity="0.5">
<path d="M163.835 110.855H233C233 110.855 228.055 95.5263 219.727 97.7632C211.398 99.9342 211.724 101.842 211.724 101.842C211.724 101.842 209.251 88.75 198.125 90.5921C186.999 92.4342 184.526 101.513 184.526 101.513C184.526 101.513 177.434 98.6842 174.311 101.513C171.253 104.342 171.838 105.855 171.838 105.855C171.838 105.855 165.071 102.763 163.835 110.855Z" fill="white"/>
</g>
<path opacity="0.25" d="M112.498 240C157.74 240 194.416 231.37 194.416 220.724C194.416 210.078 157.74 201.447 112.498 201.447C67.2566 201.447 30.5808 210.078 30.5808 220.724C30.5808 231.37 67.2566 240 112.498 240Z" fill="#042030"/>
<path d="M176.653 127.697L112.498 149.868L48.2787 127.697L17.5677 172.829L112.498 205.658L207.364 172.829L176.653 127.697Z" fill="#D74266"/>
<path opacity="0.45" d="M28.759 170.987L107.488 201.447L80.4211 174.342C80.4211 174.342 35.9813 163.487 28.759 170.987Z" fill="black" fill-opacity="0.87"/>
<path opacity="0.45" d="M196.238 170.987L117.509 201.447L144.576 174.342C144.511 174.342 188.951 163.487 196.238 170.987Z" fill="black" fill-opacity="0.87"/>
<path d="M112.498 205.658L17.5677 172.829V177.105L112.498 209.934L207.364 177.105V172.829L112.498 205.658Z" fill="#D88EBF"/>
<path d="M61.9425 225.395L72.9386 196.25L108.334 208.487L61.9425 225.395Z" fill="#86105E"/>
<path opacity="0.45" d="M65.0006 216.974L108.334 208.487L72.9386 196.25L65.0006 216.974Z" fill="#86105E"/>
<path d="M112.498 206.974L61.9425 225.395L65.7163 229.408L112.498 212.566L159.216 229.408L163.054 225.395L112.498 206.974Z" fill="#D88EBF"/>
<path d="M163.054 225.395L151.993 196.25L116.598 208.487L163.054 225.395Z" fill="#86105E"/>
<path opacity="0.45" d="M159.931 216.974L116.598 208.487L151.993 196.25L159.931 216.974Z" fill="#86105E"/>
<path d="M112.498 212.566C114.403 212.566 115.947 211.005 115.947 209.079C115.947 207.153 114.403 205.592 112.498 205.592C110.594 205.592 109.05 207.153 109.05 209.079C109.05 211.005 110.594 212.566 112.498 212.566Z" fill="white" fill-opacity="0.5"/>
<path d="M173.92 127.697L112.498 158.618L51.0765 127.697C48.2787 131.447 25.766 169.408 25.766 169.408C26.0262 169.408 26.2214 169.474 26.4817 169.474C82.9587 175.197 98.6395 193.158 103.845 197.5C109.05 201.908 112.564 201.447 112.564 201.447C112.564 201.447 116.077 201.908 121.282 197.5C126.488 193.158 142.168 175.197 198.645 169.474C198.906 169.474 199.101 169.408 199.361 169.408C199.231 169.408 176.653 131.513 173.92 127.697Z" fill="#F5B304"/>
<path d="M199.231 169.408C198.971 169.408 198.775 169.474 198.515 169.474C142.038 175.197 126.357 193.158 121.152 197.5C115.947 201.908 112.433 201.447 112.433 201.447C112.433 201.447 108.92 201.908 103.715 197.5C98.5093 193.158 82.8285 175.197 26.3516 169.474C26.0913 169.474 25.8961 169.408 25.6359 169.408C25.1804 170.132 25.6359 170.658 25.6359 170.658C82.6984 176.25 97.8587 194.276 103.064 198.684C108.269 203.026 112.368 202.697 112.368 202.697C112.368 202.697 116.467 203.026 121.673 198.684C126.878 194.342 142.038 176.316 199.101 170.658C199.231 170.658 199.686 170.132 199.231 169.408Z" fill="#D88EBF"/>
<path d="M171.578 124.079C140.151 116.447 112.433 142.566 112.433 142.566C112.433 142.566 84.7154 116.447 53.2887 124.079C53.2887 124.079 44.3748 137.895 32.0774 161.382C32.0774 161.382 93.9548 168.421 112.433 194.671C130.912 168.421 192.789 161.382 192.789 161.382C180.492 137.895 171.578 124.079 171.578 124.079Z" fill="#F5EFFB"/>
<path d="M192.789 161.382C192.789 161.382 130.912 168.421 112.433 194.671C94.0198 168.421 32.1424 161.382 32.1424 161.382C32.1424 161.382 32.1424 163.487 28.6939 167.632C28.6939 167.632 84.8456 171.711 105.276 195.263C110.091 200.789 112.433 200.132 112.433 200.132C112.433 200.132 114.841 200.789 119.591 195.263C139.956 171.711 196.173 167.632 196.173 167.632C192.789 163.421 192.789 161.382 192.789 161.382Z" fill="#DFCBF4"/>
<path d="M168.064 126.842C168.064 126.842 144.576 120.789 112.433 145.987C80.356 120.855 56.8023 126.842 56.8023 126.842L40.9263 158.026C89.205 161.382 112.433 186.053 112.433 186.053C112.433 186.053 135.662 161.382 183.941 158.026L168.064 126.842ZM112.498 183.092C112.498 183.092 90.7666 160.592 44.7001 156.184L58.0385 128.158C58.0385 128.158 81.1368 123.618 112.498 147.434C143.86 123.618 166.958 128.158 166.958 128.158L180.297 156.184C134.23 160.592 112.498 183.092 112.498 183.092Z" fill="#FF58BC"/>
<path opacity="0.2" d="M118.419 169.47C127.095 163 154.206 148.684 172.424 150.658" stroke="#FF58BC" stroke-width="3" stroke-linecap="round"/>
<path opacity="0.2" d="M118.419 151.316C126.119 145.22 146.137 133.277 164.616 134.269" stroke="#FF58BC" stroke-width="3" stroke-linecap="round"/>
<path opacity="0.2" d="M118.419 160.526C126.77 153.962 148.48 141.1 168.52 142.168" stroke="#FF58BC" stroke-width="3" stroke-linecap="round"/>
<path opacity="0.2" d="M107.358 169.47C98.6829 163 71.5722 148.684 53.3538 150.658" stroke="#FF58BC" stroke-width="3" stroke-linecap="round"/>
<path opacity="0.2" d="M107.358 151.316C99.6588 145.22 79.6403 133.277 61.1617 134.269" stroke="#FF58BC" stroke-width="3" stroke-linecap="round"/>
<path opacity="0.2" d="M107.358 160.526C99.0082 153.962 77.298 141.1 57.2577 142.168" stroke="#FF58BC" stroke-width="3" stroke-linecap="round"/>
<path d="M112.498 142.566C112.498 142.566 113.149 140.263 114.385 140.921C114.385 140.921 113.605 178.224 114.906 192.763C115.231 196.382 118.354 201.316 119.591 203.158H117.964L117.509 204.671C117.509 204.671 112.694 196.447 112.498 193.224C111.522 178.75 112.043 146.053 112.498 142.566Z" fill="#C9AA3B"/>
</svg>
